<svg width="106" height="13" viewBox="0 0 106 13" fill="none" xmlns="http://www.w3.org/2000/svg">
<path opacity="0.8" fill-rule="evenodd" clip-rule="evenodd" d="M104.574 0H95.4264C94.6386 0 94 0.689317 94 1.54016V11.4467C94 12.2972 94.6386 12.9869 95.4264 12.9869H104.574C105.361 12.9869 106 12.2972 106 11.4467V1.54016C106 0.689317 105.361 0 104.574 0ZM102.625 2.02912C102.625 1.80525 102.793 1.62354 103 1.62354H104.125C104.332 1.62354 104.5 1.80525 104.5 2.02912V3.24694C104.5 3.47081 104.332 3.65252 104.125 3.65252H103C102.793 3.65252 102.625 3.47081 102.625 3.24694V2.02912ZM100.014 4.01709C101.288 4.01709 102.322 5.13289 102.322 6.50869C102.322 7.88485 101.288 9.00029 100.014 9.00029C98.7397 9.00029 97.7064 7.88485 97.7064 6.50869C97.7064 5.13289 98.7397 4.01709 100.014 4.01709ZM104.875 11.3635C104.875 11.5874 104.707 11.7695 104.5 11.7695H95.5001C95.2929 11.7695 95.125 11.5874 95.125 11.3635V5.27588H96.625C96.4296 5.58016 96.3635 6.14797 96.3635 6.50857C96.3635 8.68173 98.0014 10.45 100.014 10.45C102.027 10.45 103.665 8.68173 103.665 6.50857C103.665 6.14797 103.617 5.58901 103.375 5.27588H104.875V11.3635Z" fill="white"/>
<path opacity="0.8" fill-rule="evenodd" clip-rule="evenodd" d="M74.6414 1.20218C74.1257 1.51976 73.5557 1.75072 72.9465 1.8743C72.4613 1.33562 71.7678 0.999023 71 0.999023C69.5283 0.999023 68.3339 2.24117 68.3339 3.77309C68.3339 3.99068 68.3568 4.20158 68.4026 4.40473C66.186 4.28889 64.2211 3.18582 62.9049 1.50532C62.6751 1.91655 62.5439 2.39363 62.5439 2.90168C62.5439 3.86358 63.0146 4.7128 63.7306 5.2103C63.294 5.19692 62.882 5.07087 62.5217 4.86455V4.89835C62.5217 6.24296 63.4412 7.3647 64.6623 7.61855C64.4387 7.68368 64.2027 7.71643 63.9594 7.71643C63.7876 7.71643 63.6199 7.69953 63.4575 7.66714C63.7969 8.76881 64.7813 9.5712 65.9486 9.59268C65.0361 10.337 63.8855 10.7806 62.6362 10.7806C62.421 10.7806 62.2083 10.7679 62 10.7426C63.1801 11.5284 64.5828 11.9879 66.0885 11.9879C70.9948 11.9879 73.6768 7.76149 73.6768 4.09525C73.6768 3.97448 73.6748 3.85407 73.6703 3.73577C74.1913 3.3446 74.6439 2.85626 75 2.29997C74.5224 2.52038 74.008 2.66966 73.4686 2.73656C74.0194 2.39363 74.4422 1.85001 74.6414 1.20218Z" fill="white"/>
<path opacity="0.8" fill-rule="evenodd" clip-rule="evenodd" d="M44 12.2698C44 12.6657 43.7035 12.9869 43.3377 12.9869H40.2798V7.9576H41.8397L42.0734 5.99783H40.2798V4.74626C40.2798 4.17885 40.4256 3.7922 41.1774 3.7922L42.1365 3.79184V2.03866C41.9704 2.01496 41.4013 1.96154 40.7391 1.96154C39.3564 1.96154 38.4097 2.87492 38.4097 4.55241V5.99783H36.846V7.9576H38.4097V12.9869H32.6623C32.2965 12.9869 32 12.6657 32 12.2698V0.717051C32 0.320851 32.2965 0 32.6623 0H43.3377C43.7035 0 44 0.320851 44 0.717051V12.2698Z" fill="white"/>
<path opacity="0.8" fill-rule="evenodd" clip-rule="evenodd" d="M4.44671 7.3837V5.6033H8.71717C9.0145 7.75763 8.11731 10.989 4.44671 10.989C1.99108 10.989 0 8.97607 0 6.49332C0 4.01058 1.99108 1.99805 4.44671 1.99805C5.59889 1.99805 6.64873 2.44096 7.4387 3.16782C6.82677 3.75222 6.63048 3.97515 6.46379 4.16447C6.37702 4.26302 6.29826 4.35246 6.17307 4.47904C5.71616 4.09706 5.21795 3.82291 4.44671 3.82291C2.98783 3.82291 1.84918 5.01859 1.84918 6.49332C1.84918 7.96841 2.98783 9.16409 4.44671 9.16409C5.88824 9.16409 6.47387 8.53561 6.85064 7.38125C6.15503 7.38125 4.44671 7.3837 4.44671 7.3837ZM12.4592 4.13452V5.69224H14V6.80494H12.4592V8.40747H11.3587V6.80494H9.77356V5.69224H11.3587V4.13452H12.4592Z" fill="white"/>
</svg>
