<svg width="1067" height="389" viewBox="0 0 1067 389" fill="none" xmlns="http://www.w3.org/2000/svg">
<path d="M810.066 164.437C833.37 164.437 852.262 145.565 852.262 122.285C852.262 99.0042 833.37 80.1318 810.066 80.1318C786.763 80.1318 767.871 99.0042 767.871 122.285C767.871 145.565 786.763 164.437 810.066 164.437Z" fill="#D8D8D8"/>
<path d="M157.501 217.859C195.572 217.859 226.434 187.027 226.434 148.995C226.434 110.963 195.572 80.1318 157.501 80.1318C119.431 80.1318 88.5683 110.963 88.5683 148.995C88.5683 187.027 119.431 217.859 157.501 217.859Z" fill="#D8D8D8"/>
<path d="M484.203 302.164C507.507 302.164 526.399 283.292 526.399 260.011C526.399 236.731 507.507 217.859 484.203 217.859C460.899 217.859 442.008 236.731 442.008 260.011C442.008 283.292 460.899 302.164 484.203 302.164Z" fill="#D8D8D8"/>
<path d="M42.1954 313.016C65.4992 313.016 84.3908 294.143 84.3908 270.863C84.3908 247.582 65.4992 228.71 42.1954 228.71C18.8915 228.71 0 247.582 0 270.863C0 294.143 18.8915 313.016 42.1954 313.016Z" fill="#D8D8D8"/>
<path d="M924.539 267.107C947.843 267.107 966.734 248.234 966.734 224.954C966.734 201.674 947.843 182.801 924.539 182.801C901.235 182.801 882.344 201.674 882.344 224.954C882.344 248.234 901.235 267.107 924.539 267.107Z" fill="#D8D8D8"/>
<path d="M821.766 388.139C845.069 388.139 863.961 369.266 863.961 345.986C863.961 322.706 845.069 303.833 821.766 303.833C798.462 303.833 779.57 322.706 779.57 345.986C779.57 369.266 798.462 388.139 821.766 388.139Z" fill="#D8D8D8"/>
<path d="M1024.8 84.3055C1048.11 84.3055 1067 65.433 1067 42.1527C1067 18.8724 1048.11 0 1024.8 0C1001.5 0 982.609 18.8724 982.609 42.1527C982.609 65.433 1001.5 84.3055 1024.8 84.3055Z" fill="#D8D8D8"/>
<path d="M661.34 232.884C684.644 232.884 703.535 214.011 703.535 190.731C703.535 167.451 684.644 148.578 661.34 148.578C638.036 148.578 619.144 167.451 619.144 190.731C619.144 214.011 638.036 232.884 661.34 232.884Z" fill="#D8D8D8"/>
<path d="M308.32 166.942C327.24 166.942 342.578 151.62 342.578 132.719C342.578 113.818 327.24 98.4961 308.32 98.4961C289.4 98.4961 274.062 113.818 274.062 132.719C274.062 151.62 289.4 166.942 308.32 166.942Z" fill="#D8D8D8"/>
<path d="M767.872 251.246C780.332 251.246 790.432 241.156 790.432 228.709C790.432 216.262 780.332 206.172 767.872 206.172C755.413 206.172 745.312 216.262 745.312 228.709C745.312 241.156 755.413 251.246 767.872 251.246Z" fill="#D8D8D8"/>
<path d="M505.508 171.95C523.505 171.95 538.095 157.376 538.095 139.397C538.095 121.418 523.505 106.843 505.508 106.843C487.511 106.843 472.922 121.418 472.922 139.397C472.922 157.376 487.511 171.95 505.508 171.95Z" fill="#D8D8D8"/>
<path d="M263.199 289.643C275.658 289.643 285.758 279.553 285.758 267.106C285.758 254.659 275.658 244.569 263.199 244.569C250.739 244.569 240.639 254.659 240.639 267.106C240.639 279.553 250.739 289.643 263.199 289.643Z" fill="#D8D8D8"/>
<path d="M376.834 235.387C392.985 235.387 406.078 222.307 406.078 206.172C406.078 190.038 392.985 176.958 376.834 176.958C360.683 176.958 347.59 190.038 347.59 206.172C347.59 222.307 360.683 235.387 376.834 235.387Z" fill="#D8D8D8"/>
</svg>
